 <svg version="1.0" xmlns="http://www.w3.org/2000/svg"  width="300.000000pt" height="291.000000pt" viewBox="0 0 300.000000 291.000000"  preserveAspectRatio="xMidYMid meet">  <g transform="translate(0.000000,291.000000) scale(0.100000,-0.100000)" fill="#000000" stroke="none"> <path d="M2994 2780 c0 -63 1 -89 3 -57 2 31 2 83 0 115 -2 31 -3 5 -3 -58z"/> <path d="M2994 2050 c0 -113 2 -159 3 -102 2 56 2 148 0 205 -1 56 -3 10 -3 -103z"/> <path d="M505 1669 c-47 -11 -95 -54 -95 -84 0 -28 24 -49 85 -76 69 -30 85 -46 85 -87 0 -92 -175 -157 -266 -97 -53 35 -56 107 -6 166 25 30 25 31 4 20 -53 -28 -79 -122 -47 -167 23 -34 77 -54 142 -54 68 0 125 23 171 69 66 67 51 111 -57 166 -72 36 -93 63 -70 91 21 26 66 44 108 44 62 0 97 -50 49 -70 -17 -6 -18 -9 -6 -9 19 -1 48 25 48 43 0 38 -76 62 -145 45z"/> <path d="M1667 1650 c-70 -12 -119 -41 -142 -83 -18 -34 -19 -39 -5 -64 21 -37 79 -44 109 -14 12 12 21 25 21 31 0 5 -11 -2 -25 -15 -31 -32 -60 -32 -80 -1 -15 22 -15 27 -1 54 23 45 93 75 190 80 l80 5 -22 -34 c-12 -19 -43 -72 -70 -118 -26 -46 -64 -101 -84 -122 -32 -33 -45 -39 -78 -39 -27 0 -43 5 -46 15 -10 24 16 47 44 40 15 -4 21 -2 17 5 -8 13 -41 13 -68 -2 -20 -10 -21 -10 -8 6 8 9 11 19 8 22 -3 3 -12 -7 -21 -23 -8 -16 -22 -35 -31 -43 -30 -25 -30 2 1 61 17 32 27 59 23 59 -12 0 -89 -49 -89 -56 0 -4 11 1 25 10 28 18 33 10 10 -20 -18 -24 -19 -70 -1 -77 8 -3 22 0 32 8 16 11 22 10 43 -6 64 -51 173 7 227 120 l17 35 18 -61 c33 -105 94 -143 139 -86 l21 27 15 -22 c12 -18 22 -21 52 -18 21 3 41 13 47 22 20 35 84 99 84 84 0 -8 -6 -24 -14 -34 -19 -25 -19 -50 0 -66 13 -11 19 -9 38 8 23 22 23 22 40 2 9 -11 23 -20 30 -20 18 0 57 29 57 42 0 6 -8 4 -18 -5 -20 -19 -48 -22 -56 -8 -10 15 5 40 27 47 12 3 30 13 40 22 22 19 23 62 1 62 -30 0 -53 -20 -89 -80 -43 -71 -72 -83 -50 -21 7 22 21 51 30 65 10 14 14 26 10 26 -13 0 -51 -23 -79 -49 l-30 -26 22 38 c17 29 18 37 7 37 -8 0 -26 -22 -39 -49 -30 -59 -51 -81 -77 -81 -33 0 -25 46 10 58 32 11 67 55 56 72 -20 32 -64 0 -118 -85 -45 -71 -73 -69 -109 5 -46 95 -46 96 9 104 85 11 153 75 121 113 -33 40 -166 62 -271 43z m238 -41 c19 -19 19 -19 -1 -46 -25 -34 -56 -50 -112 -59 l-42 -7 42 71 c38 63 46 70 68 65 14 -3 34 -14 45 -24z m90 -186 c-38 -33 -45 -20 -9 18 18 19 30 25 33 18 2 -7 -9 -23 -24 -36z m264 11 c-16 -20 -49 -37 -49 -26 0 17 53 67 58 54 2 -7 -2 -20 -9 -28z"/> <path d="M1201 1582 c-31 -25 -100 -191 -94 -224 3 -15 10 -29 17 -31 17 -7 56 11 56 25 0 8 5 6 11 -4 12 -22 42 -23 60 -2 11 14 13 14 21 0 5 -10 22 -16 41 -16 27 0 36 6 52 37 11 20 19 40 18 43 -1 4 20 44 46 91 27 46 47 86 45 88 -12 13 -39 -21 -87 -117 -54 -104 -81 -142 -93 -129 -3 3 3 26 15 51 27 62 4 62 -34 1 -48 -75 -85 -74 -45 2 31 58 63 81 87 62 14 -12 16 -12 11 1 -2 8 -17 16 -32 18 -29 4 -74 -36 -111 -99 -11 -19 -28 -35 -38 -37 -29 -6 -20 41 17 89 38 51 76 121 76 143 0 24 -16 27 -39 8z m20 -35 c-14 -37 -61 -110 -67 -104 -5 5 40 102 59 125 15 19 19 8 8 -21z"/> <path d="M742 1578 c-19 -24 -132 -258 -125 -258 14 0 28 15 55 57 15 23 37 47 48 53 24 13 26 2 5 -26 -18 -24 -19 -70 -1 -77 7 -3 24 2 37 11 16 11 24 12 27 4 5 -17 37 -15 52 3 11 13 14 12 29 -7 l18 -21 21 21 c16 16 22 18 26 6 3 -8 14 -14 24 -14 19 0 62 39 62 56 0 5 -11 -4 -23 -20 -33 -41 -52 -27 -32 22 9 20 25 49 36 65 13 18 15 27 7 27 -21 0 -32 -12 -58 -63 -24 -47 -56 -84 -64 -76 -2 2 2 22 11 44 24 66 22 90 -8 93 -32 4 -74 -29 -99 -77 -21 -41 -47 -67 -57 -57 -4 4 5 32 21 62 15 31 24 59 21 62 -3 3 -26 -9 -51 -27 l-46 -32 37 68 c21 37 45 78 53 91 13 19 12 22 -1 22 -8 0 -19 -6 -25 -12z m161 -114 c3 -3 -11 -30 -31 -60 -35 -50 -59 -71 -70 -60 -9 9 20 66 48 96 28 30 41 36 53 24z"/> <path d="M2588 1481 c-7 -10 -21 -17 -32 -15 -10 1 -28 -2 -40 -8 -25 -12 -72 -68 -57 -68 6 0 11 -4 11 -10 0 -5 -6 -7 -13 -4 -7 2 -19 -7 -27 -21 -7 -14 -17 -25 -22 -25 -4 0 -8 -5 -8 -12 0 -6 -7 -20 -17 -30 -18 -20 -10 -39 9 -20 7 7 21 12 31 12 13 0 17 5 13 16 -4 12 -1 14 14 9 14 -5 20 -2 20 9 0 9 -4 16 -10 16 -5 0 -10 7 -10 15 0 8 8 15 18 15 13 0 14 -2 4 -9 -10 -6 -10 -10 3 -21 13 -11 18 -10 33 4 10 9 26 16 34 16 9 0 19 6 21 13 4 10 6 10 6 0 1 -7 10 -13 21 -13 22 0 23 5 10 35 -8 19 -9 19 -9 1 -1 -15 -4 -17 -12 -9 -8 8 -20 7 -45 -3 -18 -8 -38 -14 -44 -14 -16 0 -12 40 5 46 8 3 17 14 20 24 4 13 13 17 31 14 15 -3 36 3 54 16 32 23 50 26 50 8 0 -10 2 -10 9 0 6 11 60 12 99 3 1 -1 2 -5 2 -11 0 -5 -11 -10 -25 -10 -17 0 -25 -5 -25 -18 0 -17 3 -17 65 2 84 27 84 33 0 52 -71 15 -107 16 -116 3 -6 -10 -9 -11 -9 -1 0 19 -47 14 -62 -7z"/> <path d="M1045 1440 c-14 -23 -23 -45 -20 -49 2 -5 -2 -25 -10 -44 -12 -30 -21 -37 -65 -47 -66 -16 -102 -44 -98 -79 3 -23 7 -26 41 -25 42 1 87 36 113 87 8 15 21 27 28 27 17 0 66 38 66 52 0 5 -14 -2 -31 -17 -17 -14 -33 -24 -35 -22 -6 5 35 120 46 131 13 13 13 26 0 26 -5 0 -21 -18 -35 -40z m-64 -157 c-14 -27 -63 -70 -89 -78 -29 -8 -41 20 -18 43 13 13 74 40 114 51 1 1 -2 -7 -7 -16z"/> <path d="M2318 1453 c-39 -42 -49 -68 -39 -96 11 -29 36 -40 61 -27 25 14 60 59 60 79 0 9 -9 0 -21 -19 -24 -40 -37 -50 -61 -50 -13 0 -18 8 -18 25 0 15 6 25 15 25 25 0 79 55 72 73 -10 25 -40 20 -69 -10z m55 -9 c-3 -8 -19 -22 -35 -30 -33 -17 -32 -7 5 33 21 24 40 22 30 -3z"/> <path d="M2691 1442 c-1 -7 -5 -11 -10 -8 -17 11 -39 -5 -34 -25 3 -10 10 -19 15 -19 6 0 8 10 5 23 -6 21 -5 21 8 3 13 -17 15 -17 21 -3 3 9 4 22 1 29 -4 10 -6 10 -6 0z"/> <path d="M2824 1427 c-2 -7 -27 -22 -54 -32 -33 -13 -49 -24 -45 -33 2 -7 1 -10 -4 -7 -6 3 -31 -8 -57 -24 -26 -17 -51 -28 -55 -25 -5 3 -10 -5 -10 -18 -1 -17 -3 -18 -6 -5 -2 9 -10 17 -17 17 -27 0 -82 -23 -98 -41 -9 -11 -19 -16 -22 -11 -3 5 -19 7 -35 4 -35 -5 -32 -22 4 -22 13 0 26 -4 30 -9 6 -11 99 -43 138 -48 23 -2 28 0 23 13 -3 9 -6 18 -6 20 0 3 -5 2 -11 -2 -14 -8 -119 16 -119 28 0 5 12 13 28 19 15 6 34 15 43 19 10 5 21 4 27 -2 9 -9 16 -7 29 5 13 11 23 13 35 6 19 -11 33 4 24 27 -4 12 -2 12 14 4 22 -12 40 -6 39 13 0 9 -2 8 -6 -1 -2 -6 -9 -9 -14 -6 -5 3 10 19 33 34 44 30 67 27 53 -7 -5 -10 -7 -21 -7 -25 1 -5 -2 -8 -7 -8 -5 0 -14 -13 -21 -30 -7 -16 -17 -27 -23 -23 -7 4 -8 0 -4 -11 4 -10 7 -20 7 -23 0 -4 11 7 25 23 14 16 25 33 25 37 0 5 16 40 35 78 19 39 35 72 35 75 0 10 -21 3 -26 -9z m-164 -138 c0 -6 -4 -7 -10 -4 -5 3 -10 11 -10 16 0 6 5 7 10 4 6 -3 10 -11 10 -16z"/> <path d="M2621 1401 c-10 -7 -11 -13 -2 -27 6 -11 11 -13 11 -6 0 7 5 10 10 7 12 -7 13 5 2 22 -4 7 -13 9 -21 4z"/> <path d="M2994 1240 c0 -63 1 -89 3 -57 2 31 2 83 0 115 -2 31 -3 5 -3 -58z"/> <path d="M2671 1238 c-11 -29 1 -42 28 -33 23 7 27 25 9 43 -18 18 -28 15 -37 -10z m29 -9 c0 -6 -4 -7 -10 -4 -5 3 -10 11 -10 16 0 6 5 7 10 4 6 -3 10 -11 10 -16z"/> <path d="M2640 1214 c0 -17 17 -36 24 -26 3 5 -1 15 -9 22 -8 7 -15 9 -15 4z"/> <path d="M2620 1201 c0 -5 5 -13 10 -16 6 -3 10 -2 10 4 0 5 -4 13 -10 16 -5 3 -10 2 -10 -4z"/> <path d="M2994 925 c0 -93 2 -133 3 -88 2 45 2 122 0 170 -1 48 -3 12 -3 -82z"/> <path d="M2991 234 c0 -11 3 -14 6 -6 3 7 2 16 -1 19 -3 4 -6 -2 -5 -13z"/> </g> </svg> 