<?xml version="1.0" standalone="no"?>
<!DOCTYPE svg PUBLIC "-//W3C//DTD SVG 20010904//EN"
 "http://www.w3.org/TR/2001/REC-SVG-20010904/DTD/svg10.dtd">
<svg version="1.0" xmlns="http://www.w3.org/2000/svg"
 width="1126.000000pt" height="533.000000pt" viewBox="0 0 1126.000000 533.000000"
 preserveAspectRatio="xMidYMid meet">
<metadata>
Created by potrace 1.16, written by Peter Selinger 2001-2019
</metadata>
<g transform="translate(0.000000,533.000000) scale(0.100000,-0.100000)"
fill="#000000" stroke="none">
<path d="M1205 3764 c-101 -22 -221 -84 -300 -157 -76 -69 -111 -118 -124
-176 -30 -135 73 -238 369 -370 196 -88 282 -148 323 -225 17 -32 21 -59 22
-126 0 -77 -3 -92 -33 -152 -127 -258 -582 -429 -913 -343 -269 70 -404 290
-329 537 27 91 60 150 144 256 88 112 86 128 -10 73 -158 -91 -262 -307 -252
-524 5 -113 33 -180 102 -249 191 -188 643 -234 972 -99 162 66 321 191 414
324 62 87 84 152 77 222 -7 66 -26 105 -86 168 -64 68 -139 120 -326 222 -216
117 -279 165 -317 239 -27 54 -18 93 38 155 34 38 70 63 137 96 168 82 340 96
467 39 162 -73 175 -201 25 -258 -73 -28 -37 -61 39 -36 94 31 175 134 161
206 -14 78 -118 149 -262 179 -86 19 -247 18 -338 -1z"/>
<path d="M6317 3700 c-436 -39 -692 -178 -817 -442 -36 -76 -37 -117 -6 -184
99 -213 396 -233 541 -37 32 44 46 93 27 93 -11 0 -49 -28 -121 -88 -96 -81
-165 -101 -230 -68 -56 29 -131 137 -131 189 0 47 68 163 129 219 162 151 414
221 871 243 69 3 138 9 153 11 27 6 26 3 -41 -103 -38 -59 -140 -229 -227
-378 -88 -148 -183 -308 -214 -355 -151 -236 -307 -413 -406 -459 -91 -43
-281 -37 -332 11 -30 28 -31 88 -3 128 34 48 81 63 171 55 76 -7 79 -6 79 14
0 37 -45 56 -131 55 -67 -1 -87 -6 -154 -37 -70 -33 -76 -35 -61 -15 41 57 56
85 56 106 0 56 -58 4 -125 -113 -48 -83 -144 -185 -174 -185 -44 0 -20 92 71
275 62 123 108 235 108 260 0 14 -6 16 -27 10 -66 -16 -346 -196 -360 -231
-11 -30 7 -26 91 20 124 67 136 61 74 -32 -67 -102 -73 -120 -73 -229 0 -93 2
-104 23 -125 33 -33 99 -29 164 11 27 17 61 31 76 31 16 0 57 -21 100 -50 86
-58 151 -80 242 -80 170 0 336 83 500 249 102 104 164 194 246 356 l61 121 47
-161 c89 -303 196 -478 331 -541 127 -60 229 -11 361 170 l20 28 33 -51 c69
-107 123 -132 249 -114 117 17 175 52 252 154 109 145 262 299 296 299 11 0
10 -9 -6 -52 -11 -29 -28 -64 -39 -78 -91 -124 -81 -259 22 -315 34 -18 38
-18 69 -3 18 9 62 41 97 72 36 31 67 56 71 56 3 0 26 -21 50 -46 67 -70 119
-104 155 -104 72 0 245 126 245 178 0 35 -35 27 -102 -23 -87 -65 -173 -75
-211 -23 -45 60 18 157 128 197 98 36 166 88 198 150 44 88 34 194 -20 207
-34 9 -94 -1 -139 -22 -66 -31 -138 -115 -258 -298 -63 -96 -137 -198 -165
-227 -80 -83 -100 -52 -56 89 31 98 84 217 144 317 67 114 53 130 -65 70 -66
-33 -186 -120 -294 -213 l-50 -44 62 107 c69 122 81 177 40 183 -31 5 -94 -61
-140 -143 -19 -33 -56 -100 -84 -149 -91 -162 -158 -234 -241 -257 -49 -13
-104 9 -113 46 -18 74 26 138 131 190 101 49 176 120 216 200 34 70 34 95 -1
133 -45 48 -112 41 -198 -22 -76 -56 -158 -154 -284 -338 -141 -209 -208 -263
-288 -232 -56 22 -105 88 -189 254 -133 264 -156 343 -108 374 12 8 76 24 141
36 138 24 216 48 306 96 172 90 276 223 256 329 -22 114 -236 218 -536 259
-139 19 -361 27 -483 16z m744 -146 c72 -38 149 -111 149 -141 0 -27 -67 -121
-130 -183 -64 -63 -145 -109 -245 -139 -74 -22 -300 -64 -315 -59 -9 3 224
395 284 477 76 103 129 112 257 45z m1639 -712 c0 -40 -46 -105 -107 -150 -54
-41 -110 -68 -120 -59 -21 22 73 145 161 209 50 36 66 36 66 0z m-1060 6 c0
-23 -39 -77 -87 -124 -50 -48 -130 -100 -139 -91 -21 21 164 227 205 227 11 0
21 -6 21 -12z"/>
<path d="M4199 3420 c-78 -41 -153 -155 -264 -397 -115 -254 -185 -470 -185
-575 0 -65 32 -136 72 -158 56 -31 219 31 242 91 5 16 14 29 17 29 4 0 17 -16
29 -35 28 -45 67 -65 125 -65 59 0 109 23 142 66 32 42 47 43 70 3 24 -40 79
-68 152 -75 86 -9 153 9 193 54 44 49 110 178 143 277 26 81 55 137 256 503
65 118 121 228 124 244 18 78 -58 52 -131 -46 -53 -71 -130 -205 -286 -501
-165 -312 -275 -475 -321 -475 -36 0 -30 35 39 207 25 61 47 134 51 162 6 51
6 51 -22 51 -37 0 -82 -48 -175 -185 -121 -177 -211 -263 -246 -234 -23 19
-11 76 35 175 102 216 235 356 327 341 17 -3 52 -20 75 -37 49 -35 62 -25 37
27 -33 70 -166 94 -261 47 -74 -37 -238 -206 -307 -317 -113 -182 -184 -250
-238 -231 -25 9 -27 14 -27 69 0 80 37 157 153 323 112 159 158 233 227 372
61 121 86 200 78 246 -12 64 -56 80 -124 44z m46 -153 c-35 -108 -204 -398
-264 -451 -30 -27 -27 -9 15 92 97 235 253 494 262 434 2 -12 -4 -46 -13 -75z"/>
<path d="M2244 3404 c-18 -9 -41 -25 -52 -37 -60 -64 -509 -980 -528 -1077 -6
-26 -4 -30 15 -30 34 0 114 82 191 196 127 186 234 294 292 294 31 0 20 -30
-45 -127 -20 -29 -41 -77 -48 -107 -15 -68 -8 -166 14 -200 15 -22 25 -26 63
-26 44 0 112 27 167 65 33 23 61 18 85 -14 42 -58 138 -49 216 20 24 22 49 39
54 39 6 0 38 -33 73 -72 34 -40 66 -75 71 -77 5 -2 42 29 83 68 40 39 79 71
86 71 8 0 22 -14 31 -30 17 -30 70 -60 106 -60 86 0 305 211 263 253 -8 8 -33
-13 -93 -77 -92 -97 -131 -124 -154 -105 -47 39 12 199 162 440 65 104 71 133
30 137 -75 9 -130 -49 -236 -244 -41 -76 -100 -172 -131 -214 -61 -82 -125
-144 -140 -135 -12 8 -6 35 53 210 38 114 52 170 56 232 5 81 4 82 -26 112
-28 29 -36 31 -100 31 -156 0 -283 -109 -436 -377 -54 -93 -115 -167 -158
-189 -69 -36 -61 28 28 218 98 211 126 308 89 308 -29 0 -129 -58 -250 -143
-66 -46 -122 -83 -123 -82 -7 6 215 400 386 686 8 14 13 33 9 42 -8 22 -61 22
-103 1z m620 -519 c18 -14 18 -16 -14 -81 -79 -162 -270 -405 -340 -434 -72
-30 -77 18 -16 147 69 144 199 309 288 363 39 23 56 25 82 5z"/>
<path d="M10188 3026 c-51 -14 -96 -40 -116 -67 -31 -44 -73 -62 -163 -70
-103 -8 -171 -36 -241 -98 -56 -50 -143 -158 -157 -194 -9 -24 -7 -28 20 -42
43 -23 36 -51 -12 -47 -47 4 -85 -27 -144 -119 -30 -46 -53 -71 -70 -75 -19
-5 -28 -17 -40 -57 -8 -27 -32 -73 -53 -101 -50 -66 -62 -89 -62 -119 0 -48
35 -42 118 18 19 13 55 27 80 30 85 12 84 11 80 68 -3 51 -2 52 22 47 14 -2
45 -4 70 -5 42 0 45 2 48 29 5 45 -6 74 -35 88 -75 37 -44 119 45 118 l27 -1
-35 -29 c-34 -28 -35 -30 -20 -57 18 -33 75 -73 103 -73 11 0 43 18 71 39 62
48 131 80 170 81 20 0 39 11 62 36 29 30 34 33 34 15 0 -34 41 -52 107 -49
l58 3 2 40 c2 26 -7 62 -25 104 -35 80 -52 89 -52 28 0 -72 -7 -81 -40 -57
-44 31 -104 26 -222 -19 -176 -66 -198 -65 -198 16 0 55 22 98 60 118 33 17
71 64 90 113 18 45 36 52 133 52 103 0 139 12 252 84 126 79 175 84 175 15 0
-34 22 -39 42 -11 7 11 24 24 37 31 35 19 203 24 301 9 81 -12 85 -14 88 -40
4 -35 -19 -47 -105 -55 -80 -7 -103 -26 -103 -82 0 -56 16 -65 87 -51 83 17
359 108 416 136 48 25 60 50 33 73 -26 21 -131 51 -300 86 -286 58 -405 57
-461 -3 l-25 -27 0 28 c0 23 -7 31 -35 43 -41 17 -55 17 -117 0z"/>
<path d="M3577 2901 c-93 -100 -177 -257 -177 -332 0 -51 -30 -160 -62 -224
-45 -89 -90 -119 -248 -160 -312 -81 -444 -189 -427 -352 9 -88 25 -98 150
-98 119 0 166 14 269 82 85 56 163 142 229 255 58 100 92 133 152 149 58 15
166 89 221 150 88 98 40 109 -79 18 -88 -67 -155 -112 -160 -107 -7 7 47 192
91 308 52 141 85 210 121 258 33 44 29 96 -8 100 -20 2 -36 -8 -72 -47z m-347
-746 c0 -49 -174 -240 -287 -315 -121 -81 -178 -87 -219 -25 -24 37 -6 92 46
139 44 40 185 110 335 167 97 37 125 45 125 34z"/>
<path d="M9057 2936 c-55 -20 -123 -77 -195 -162 -107 -129 -142 -221 -122
-318 31 -150 163 -217 286 -147 100 58 244 246 244 319 0 56 -29 36 -98 -68
-102 -156 -153 -199 -238 -202 -60 -3 -84 23 -84 91 0 60 18 94 55 104 103 30
220 121 284 222 48 76 36 141 -31 164 -39 14 -54 13 -101 -3z m99 -81 c11 -28
-8 -70 -49 -110 -62 -58 -197 -127 -197 -99 0 20 125 165 174 202 35 25 64 29
72 7z"/>
<path d="M10505 2788 c-8 -25 -15 -32 -30 -30 -89 15 -94 15 -125 -16 -24 -24
-30 -39 -30 -72 0 -51 26 -99 58 -107 40 -10 54 41 32 116 -9 34 -9 34 39 -20
42 -47 50 -52 64 -40 33 27 47 127 25 176 -15 33 -22 32 -33 -7z"/>
<path d="M11074 2726 c-53 -54 -88 -74 -299 -171 -96 -44 -125 -69 -125 -107
0 -21 -5 -28 -20 -28 -35 0 -124 -39 -220 -96 -131 -78 -209 -114 -247 -114
-29 0 -33 -4 -42 -37 -6 -21 -11 -49 -11 -63 0 -21 -3 -19 -19 16 -20 45 -35
54 -88 54 -93 0 -328 -97 -388 -160 -16 -17 -43 -40 -59 -50 -26 -17 -31 -17
-53 -3 -18 12 -42 14 -106 11 -92 -5 -141 -23 -145 -54 -4 -28 27 -40 122 -49
65 -6 85 -13 128 -42 121 -84 528 -210 648 -201 55 4 59 17 34 100 -16 53 -20
59 -38 52 -42 -14 -118 -16 -184 -5 -160 27 -342 85 -342 109 0 20 42 44 185
107 162 71 180 74 235 34 34 -26 56 -20 121 32 48 38 86 45 133 25 54 -23 92
-20 110 6 18 26 21 75 6 114 -6 15 -9 28 -7 31 2 2 29 -8 61 -22 64 -28 112
-32 143 -10 25 17 39 67 25 91 -8 14 -12 12 -31 -15 -21 -29 -51 -42 -51 -22
0 12 87 91 143 130 72 49 152 83 189 79 28 -2 34 -8 36 -31 2 -15 -6 -54 -17
-87 -12 -33 -21 -71 -21 -84 0 -17 -10 -30 -35 -44 -25 -15 -45 -42 -74 -99
-49 -98 -75 -127 -107 -119 -12 3 -25 2 -29 -4 -8 -13 37 -160 49 -160 14 0
110 105 160 175 24 33 49 78 56 100 7 22 75 171 151 331 77 160 139 300 139
312 0 18 -6 22 -31 22 -24 0 -43 -12 -85 -54z"/>
<path d="M10223 2620 c-12 -5 -30 -21 -39 -36 -17 -26 -17 -28 10 -80 31 -58
62 -73 68 -31 3 19 8 22 41 19 32 -3 37 -1 37 18 0 31 -29 88 -54 105 -23 17
-32 17 -63 5z"/>
<path d="M10472 2003 c-16 -6 -47 -66 -62 -122 -21 -81 5 -121 78 -121 55 0
108 24 135 62 18 24 19 32 9 66 -22 73 -109 136 -160 115z"/>
</g>
</svg>
